<?xml version="1.0" encoding="UTF-8"?> <svg xmlns="http://www.w3.org/2000/svg" id="Layer_1" version="1.1" viewBox="0 0 116 26.6"><defs><style> .st0 { fill: #ff5100; } </style></defs><polygon class="st0" points="32.5 3 33.1 .7 27.8 .7 27.4 .7 26.8 3 32.5 3"></polygon><polygon class="st0" points="39.9 3 40.5 .7 35.1 .7 34.7 .7 34.1 3 39.9 3"></polygon><polygon class="st0" points=".4 25.9 5.8 4.8 22 4.8 20.9 9.6 11 9.6 9.9 13.9 16.8 13.9 15.7 18.3 8.8 18.3 7 25.9 .4 25.9"></polygon><path class="st0" d="M54.6,10.9c.2-1.5-1.6-1.3-1.6-1.3h-3.4c-.4,1.5-.8,3.1-1.1,4.5h4.2c1.5,0,1.8-1.8,2-3.2M56.5,16.4c3.4.4,2.4,4.1,2.4,4.1l-.9,5.4h-6.6l.9-5.4c.4-1.9-1.2-1.9-1.2-1.9h-3.7l-1.8,7.2h-6.5l5.2-21.1h12.9s4.2-.3,4.5,2.8c.3,3.5-.9,8.4-5.2,8.7"></path><polygon class="st0" points="83.7 4.8 82.5 9.7 88.5 9.7 84.5 25.9 91 25.9 95 9.7 101.3 9.7 102.5 4.8 83.7 4.8"></polygon><polygon class="st0" points="102.3 9.7 103.5 4.8 107 4.8 105.8 9.7 102.3 9.7"></polygon><polygon class="st0" points="106.6 9.7 107.8 4.8 111.3 4.8 110.1 9.7 106.6 9.7"></polygon><polygon class="st0" points="110.9 9.7 112.1 4.8 115.6 4.8 114.4 9.7 110.9 9.7"></polygon><path class="st0" d="M66,16.8l6.6,1.5s.9.1.7,1.1c-.2,1-.6,1.8-1.1,1.8h-4.5c-1.6,0-.5-2.4-.5-2.4h-5.8s-.5,1.6-.7,3.2c-.2,1.6.1,3.9,3.6,3.9h8.8s3.6.2,5.2-3.4c1-2.2,1.3-5.2,1.3-5.2.2-3.2-3.1-3.7-3.1-3.7l-6.8-1.4s-1-.1-.2-2c.3-.8,1-.8,1-.8h3.6c1.4,0,1.1,1,1.1,1l-.2,1.2h6s.4-2.6.4-3.5c.2-3.5-3.7-3.3-3.7-3.3h-8.6s-3.3-.1-4.5,2.7c0,0-1.7,2.9-1.7,5.9,0,2.9,3.1,3.4,3.1,3.4"></path><path class="st0" d="M28.3,11.1c-1,2.3-1.9,7.2-1.9,7.2,0,0-.6,2.7.7,2.7h3.5s1,0,1.6-1.3c1.2-2.8,2.1-8.7,2.1-8.7.2-1.4-1-1.3-1-1.3h-3.4c-1.2,0-1.6,1.4-1.6,1.4M24.6,6.3c1.5-1.5,4-1.5,4-1.5h7.1s2.2,0,3.3.8c1.1.9,1.8,2.5,1.5,6-.2,3.5-1.6,7.4-2.4,9.3-.8,1.9-2.6,4.9-6.2,4.9h-7.9c-3.8,0-4.2-3.8-4.2-3.8,0,0-.4-2.8.2-5.4,0,0,1-7,4.5-10.4"></path></svg> 